{"asset":{"version":"2.0","generator":"aagym-quad-gen"},"buffers":[{"uri":"data:application/octet-stream;base64,","byteLength":92}],"bufferViews":[{"buffer":0,"byteOffset":0,"byteLength":48,"target":34962},{"buffer":0,"byteOffset":48,"byteLength":32,"target":34962},{"buffer":0,"byteOffset":80,"byteLength":12,"target":34963}],"accessors":[{"bufferView":0,"byteOffset":0,"componentType":5126,"count":4,"type":"VEC3","min":[-0.5,-0.5,0.0],"max":[0.5,0.5,0.0]},{"bufferView":1,"byteOffset":0,"componentType":5126,"count":4,"type":"VEC2"},{"bufferView":2,"byteOffset":0,"componentType":5123,"count":6,"type":"SCALAR"}],"images":[{"uri":"aagym_ghost_halloween.png"}],"samplers":[{"magFilter":9729,"minFilter":9987,"wrapS":33071,"wrapT":33071}],"textures":[{"sampler":0,"source":0}],"materials":[{"name":"logoMat","pbrMetallicRoughness":{"baseColorTexture":{"index":0},"metallicFactor":0.0,"roughnessFactor":1.0},"alphaMode":"BLEND","doubleSided":true}],"meshes":[{"primitives":[{"attributes":{"POSITION":0,"TEXCOORD_0":1},"indices":2,"material":0}]}],"nodes":[{"mesh":0,"name":"LogoPlane"}],"scenes":[{"nodes":[0]}],"scene":0}